<mxfile host="app.diagrams.net" modified="2023-08-08T13:13:51.325Z" agent="Mozilla/5.0 (Macintosh; Intel Mac OS X 10_15_7) AppleWebKit/537.36 (KHTML, like Gecko) Chrome/115.0.0.0 Safari/537.36" version="21.6.6" etag="B7CYlug-K9nXmdkvEaSs" type="github">
  <diagram name="Sayfa -1" id="nEpasdpnIF6QxxQhhLIC">
    <mxGraphModel>
      <root>
        <mxCell id="0" />
        <mxCell id="1" parent="0" />
      </root>
    </mxGraphModel>
  </diagram>
</mxfile>
